<svg width="21.666656" height="22.166382" viewBox="0 0 21.6667 22.1664" fill="none" xmlns="http://www.w3.org/2000/svg" xmlns:xlink="http://www.w3.org/1999/xlink">
	<desc>
			Created with Pixso.
	</desc>
	<defs/>
	<path id="Vector" d="M20.5833 0L13 0C12.1979 0.00292969 11.4255 0.327271 10.8333 0.910034C10.2412 0.327271 9.46878 0.00292969 8.66666 0L1.08334 0C0.796021 0 0.520477 0.122925 0.317291 0.341675C0.114136 0.560547 0 0.8573 0 1.16663L0 18.6666C0 18.9761 0.114136 19.2728 0.317291 19.4916C0.520477 19.7104 0.796021 19.8334 1.08334 19.8334L7.32117 19.8334C7.89551 19.8347 8.44611 20.0804 8.853 20.517L10.0674 21.8248C10.0772 21.8353 10.0902 21.8389 10.0999 21.8494C10.1931 21.9426 10.2971 22.0243 10.4184 22.078L10.4206 22.078C10.6849 22.1958 10.9818 22.1958 11.2461 22.078L11.2483 22.078C11.3696 22.0243 11.4736 21.9415 11.5667 21.8494C11.5765 21.8389 11.5895 21.8353 11.5992 21.8248L12.8137 20.517C13.2206 20.0804 13.7711 19.8347 14.3455 19.8334L20.5833 19.8334C20.8707 19.8334 21.1462 19.7104 21.3494 19.4916C21.5525 19.2728 21.6667 18.9761 21.6667 18.6666L21.6667 1.16663C21.6667 0.8573 21.5525 0.560547 21.3494 0.341675C21.1462 0.122925 20.8707 0 20.5833 0ZM19.5 17.5L14.3455 17.5C13.4798 17.5027 12.6344 17.7825 11.9167 18.3038L11.9167 3.5C11.9167 2.85718 12.402 2.33337 13 2.33337L19.5 2.33337L19.5 17.5Z" fill="#F8FDFE" fill-opacity="1.000000" fill-rule="nonzero"/>
</svg>
